<svg fill="none" xmlns="http://www.w3.org/2000/svg" viewBox="0 0 183 34" class="logo-publicom-color"><path d="M17.039 17.809c0 4.672-3.506 8.278-7.77 8.278-2.326 0-4.025-.845-5.16-2.29v8.125H0V9.966h4.109v1.85c1.144-1.444 2.834-2.29 5.16-2.29 4.264 0 7.77 3.607 7.77 8.283Zm-4.11 0c0-2.642-1.877-4.404-4.425-4.404-2.549 0-4.395 1.788-4.395 4.404 0 2.615 1.878 4.403 4.395 4.403 2.517 0 4.426-1.77 4.426-4.403ZM35.025 9.967v15.68h-4.109v-1.761c-.952 1.409-2.61 2.201-4.743 2.201-3.371 0-6.018-2.307-6.018-6.49v-9.63h4.109v9.128c0 2.13 1.305 3.232 3.152 3.232 2.007 0 3.5-1.163 3.5-3.893V9.967h4.11ZM56.294 17.809c0 4.671-3.506 8.278-7.77 8.278-2.326 0-4.025-.846-5.16-2.29v1.85h-4.11V3.696h4.114v8.12c1.145-1.445 2.835-2.29 5.16-2.29 4.26 0 7.766 3.606 7.766 8.283Zm-4.11 0c0-2.642-1.877-4.404-4.425-4.404-2.549 0-4.39 1.766-4.39 4.404 0 2.637 1.877 4.403 4.394 4.403 2.517 0 4.422-1.77 4.422-4.403ZM59.665 2.754h4.108V25.65h-4.108V2.754ZM67.51 5.607a2.465 2.465 0 0 1 .422-1.39 2.522 2.522 0 0 1 1.135-.923c.463-.19.973-.24 1.465-.145.492.096.944.333 1.299.683.354.349.596.794.693 1.279.097.485.046.987-.147 1.443-.194.456-.52.845-.938 1.118-.418.272-.91.417-1.411.414a2.564 2.564 0 0 1-1.772-.734 2.487 2.487 0 0 1-.745-1.745ZM72.112 9.967h-4.11v15.68h4.11V9.967ZM75.518 17.809a7.99 7.99 0 0 1 .589-3.197 8.087 8.087 0 0 1 1.817-2.712 8.234 8.234 0 0 1 2.754-1.79 8.334 8.334 0 0 1 3.246-.58 8.108 8.108 0 0 1 4.146 1.048 7.95 7.95 0 0 1 3.007 3l-3.532 2.038a3.905 3.905 0 0 0-1.506-1.568 3.986 3.986 0 0 0-2.124-.532c-2.45 0-4.266 1.787-4.266 4.297a4.05 4.05 0 0 0 .277 1.644c.206.523.518 1 .918 1.4.4.4.878.715 1.406.925.529.21 1.095.312 1.665.298a3.978 3.978 0 0 0 2.137-.51 3.897 3.897 0 0 0 1.524-1.56l3.577 2.009a8.343 8.343 0 0 1-4.067 3.464 8.5 8.5 0 0 1-5.367.317 8.384 8.384 0 0 1-4.458-2.962 8.17 8.17 0 0 1-1.712-5.02l-.03-.01ZM92.678 17.809a8.206 8.206 0 0 1 1.412-4.616 8.396 8.396 0 0 1 3.78-3.063 8.543 8.543 0 0 1 4.87-.476 8.469 8.469 0 0 1 4.318 2.27 8.262 8.262 0 0 1 2.306 4.253 8.181 8.181 0 0 1-.484 4.797 8.326 8.326 0 0 1-3.11 3.722 8.517 8.517 0 0 1-4.686 1.391 8.432 8.432 0 0 1-3.23-.607 8.33 8.33 0 0 1-2.74-1.793 8.185 8.185 0 0 1-1.82-2.697 8.085 8.085 0 0 1-.616-3.181Zm12.738 0a4.218 4.218 0 0 0-1.264-3.005 4.347 4.347 0 0 0-3.051-1.245 4.348 4.348 0 0 0-3.05 1.245 4.217 4.217 0 0 0-1.264 3.005c0 1.127.454 2.207 1.264 3.004a4.348 4.348 0 0 0 3.05 1.245 4.347 4.347 0 0 0 3.051-1.245 4.218 4.218 0 0 0 1.264-3.004ZM136.524 15.986v9.66h-4.109v-9.378c0-1.85-.956-2.977-2.682-2.977-1.815 0-2.96 1.189-2.96 3.523v8.806h-4.109v-9.352c0-1.85-.956-2.977-2.682-2.977s-2.996 1.189-2.996 3.523v8.806h-4.109V9.966h4.109v1.66c.894-1.32 2.388-2.1 4.426-2.1 2.039 0 3.439.815 4.333 2.259.988-1.413 2.58-2.259 4.743-2.259 3.64 0 6.036 2.54 6.036 6.46Z" fill="#010101"></path> <path fill-rule="evenodd" clip-rule="evenodd" d="m175.14.002-19.104.466a7.392 7.392 0 0 0-4.872 1.985 7.181 7.181 0 0 0-2.26 4.69l-1.462 19.09a7.121 7.121 0 0 0 .389 2.926c.333.939.859 1.8 1.545 2.529a7.33 7.33 0 0 0 2.443 1.708 7.43 7.43 0 0 0 2.933.604h20.544a7.39 7.39 0 0 0 5.185-2.115 7.167 7.167 0 0 0 2.148-5.107V7.229c0-.962-.194-1.915-.572-2.801a7.225 7.225 0 0 0-1.629-2.364 7.35 7.35 0 0 0-2.433-1.556 7.433 7.433 0 0 0-2.855-.505Zm-10.096 26.156a8.617 8.617 0 0 1-4.736-1.416 8.433 8.433 0 0 1-3.141-3.768 8.282 8.282 0 0 1-.485-4.852 8.355 8.355 0 0 1 2.334-4.3 8.564 8.564 0 0 1 4.365-2.297 8.647 8.647 0 0 1 4.926.477 8.501 8.501 0 0 1 3.827 3.093 8.314 8.314 0 0 1 1.437 4.665 8.334 8.334 0 0 1-2.498 5.938 8.592 8.592 0 0 1-6.029 2.46Z" fill="#010101"></path> <path d="M168.42 14.436h-6.751v6.649h6.751v-6.65Z" fill="#010101"></path></svg>